<?xml version="1.0" encoding="utf-8"?>
<!-- Generator: Adobe Illustrator 16.0.0, SVG Export Plug-In . SVG Version: 6.00 Build 0)  -->
<!DOCTYPE svg PUBLIC "-//W3C//DTD SVG 1.1//EN" "http://www.w3.org/Graphics/SVG/1.1/DTD/svg11.dtd">
<svg version="1.1" id="Layer_1" xmlns="http://www.w3.org/2000/svg" xmlns:xlink="http://www.w3.org/1999/xlink" x="0px" y="0px"
	 width="435.5px" height="415.9px" viewBox="0 0 435.5 415.9" enable-background="new 0 0 435.5 415.9" xml:space="preserve">
<g>
	<line fill="none" stroke="#231F20" stroke-width="7" stroke-miterlimit="10" x1="217.8" y1="17.8" x2="417.8" y2="163.1"/>
	<linearGradient id="SVGID_1_" gradientUnits="userSpaceOnUse" x1="216.2935" y1="90.417" x2="419.2319" y2="90.417">
		<stop  offset="0" style="stop-color:#4125CC"/>
		<stop  offset="1" style="stop-color:#CC25CC"/>
	</linearGradient>
	<line fill="none" stroke="url(#SVGID_1_)" stroke-width="5" stroke-miterlimit="10" x1="217.8" y1="17.8" x2="417.8" y2="163.1"/>
</g>
<g>
	<line fill="none" stroke="#231F20" stroke-width="7" stroke-miterlimit="10" x1="17.8" y1="163.1" x2="94.2" y2="398.2"/>
	<linearGradient id="SVGID_2_" gradientUnits="userSpaceOnUse" x1="15.3853" y1="280.6279" x2="96.5332" y2="280.6279">
		<stop  offset="0" style="stop-color:#78CC25"/>
		<stop  offset="1" style="stop-color:#FFB92E"/>
	</linearGradient>
	<line fill="none" stroke="url(#SVGID_2_)" stroke-width="5" stroke-miterlimit="10" x1="17.8" y1="163.1" x2="94.2" y2="398.2"/>
</g>
<g>
	<line fill="none" stroke="#231F20" stroke-width="7" stroke-miterlimit="10" x1="17.8" y1="163.1" x2="217.8" y2="17.8"/>
	<linearGradient id="SVGID_3_" gradientUnits="userSpaceOnUse" x1="16.2935" y1="90.417" x2="219.2319" y2="90.417">
		<stop  offset="0" style="stop-color:#78CC25"/>
		<stop  offset="1" style="stop-color:#4125CC"/>
	</linearGradient>
	<line fill="none" stroke="url(#SVGID_3_)" stroke-width="5" stroke-miterlimit="10" x1="17.8" y1="163.1" x2="217.8" y2="17.8"/>
</g>
<circle fill="#4125CC" stroke="#231F20" stroke-miterlimit="10" cx="217.8" cy="17.8" r="17.5"/>
<circle fill="#78CC25" stroke="#231F20" stroke-miterlimit="10" cx="17.8" cy="163.1" r="17.5"/>
<g>
	<line fill="none" stroke="#231F20" stroke-width="7" stroke-miterlimit="10" x1="417.8" y1="163.1" x2="335.3" y2="398.2"/>
	<linearGradient id="SVGID_4_" gradientUnits="userSpaceOnUse" x1="332.9028" y1="280.6631" x2="420.1216" y2="280.6631">
		<stop  offset="0" style="stop-color:#CC2541"/>
		<stop  offset="1" style="stop-color:#CC25CC"/>
	</linearGradient>
	<line fill="none" stroke="url(#SVGID_4_)" stroke-width="5" stroke-miterlimit="10" x1="417.8" y1="163.1" x2="335.3" y2="398.2"/>
</g>
<circle fill="#CC25CC" stroke="#231F20" stroke-miterlimit="10" cx="417.8" cy="163.1" r="17.5"/>
<g>
	
		<text transform="matrix(1 0 0 1 37.4116 409.7002)" fill="none" stroke="#231F20" stroke-width="7" stroke-miterlimit="10" font-family="'Perpetua-Bold'" font-size="394">M</text>
	<g>
		<linearGradient id="SVGID_5_" gradientUnits="userSpaceOnUse" x1="56.3857" y1="211.0059" x2="390.6504" y2="403.9937">
			<stop  offset="7.526882e-002" style="stop-color:#78CC25"/>
			<stop  offset="0.1051" style="stop-color:#90C927"/>
			<stop  offset="0.1704" style="stop-color:#C0C22A"/>
			<stop  offset="0.228" style="stop-color:#E2BD2C"/>
			<stop  offset="0.2754" style="stop-color:#F7BA2D"/>
			<stop  offset="0.3065" style="stop-color:#FFB92E"/>
			<stop  offset="0.4265" style="stop-color:#F08D34"/>
			<stop  offset="0.5935" style="stop-color:#DD553B"/>
			<stop  offset="0.718" style="stop-color:#D1323F"/>
			<stop  offset="0.7849" style="stop-color:#CC2541"/>
			<stop  offset="0.8368" style="stop-color:#CD2646"/>
			<stop  offset="0.8947" style="stop-color:#CF2753"/>
			<stop  offset="0.9301" style="stop-color:#D1295F"/>
		</linearGradient>
		<path fill="url(#SVGID_5_)" d="M357.3,179.2v6.7c-9.4,1.7-16.2,4.7-20.4,8.9c-4.2,4.3-6.3,10.4-6.3,18.4c-0.1,3,0.2,6.3,0.7,10
			l20.8,143.9c1.5,10.5,5.1,18.6,10.7,24.2s13.8,9.5,24.5,11.5v6.7H273.5V403c9.5-2.4,16.3-6.2,20.4-11.4c4.1-5.1,6.2-12.5,6.2-22.1
			c0-4.7-0.5-10.5-1.3-17.3l-18.9-131.6L204,409.7h-8.2l-74.8-189.1l-20,135.4c-0.8,5.4-1.2,10.3-1.2,14.6
			c0,20.1,9.4,30.9,28.3,32.3v6.7H44.5V403c12.2-0.5,21.4-4.6,27.5-12.2c6.2-7.6,10.6-20.5,13.4-38.6l22.8-150.5
			c-9.8-10.1-20.9-15.4-33.5-15.8v-6.7h83.4l60.1,152l61-152H357.3z"/>
	</g>
	<text transform="matrix(1 0 0 1 37.4116 409.7002)" fill="none" stroke="#231F20" font-family="'Perpetua-Bold'" font-size="394">M</text>
</g>
</svg>
